<svg width="24" height="25" viewBox="0 0 24 25" fill="none" xmlns="http://www.w3.org/2000/svg">
<path fill-rule="evenodd" clip-rule="evenodd" d="M10.5 4.25001C9.61358 4.25001 8.73583 4.4246 7.91689 4.76382C7.09794 5.10304 6.35382 5.60024 5.72703 6.22704C5.10023 6.85384 4.60303 7.59795 4.26381 8.4169C3.92459 9.23585 3.75 10.1136 3.75 11C3.75 11.8864 3.92459 12.7642 4.26381 13.5831C4.60303 14.4021 5.10023 15.1462 5.72703 15.773C6.35382 16.3998 7.09794 16.897 7.91689 17.2362C8.73583 17.5754 9.61358 17.75 10.5 17.75C12.2902 17.75 14.0071 17.0389 15.273 15.773C16.5388 14.5071 17.25 12.7902 17.25 11C17.25 9.2098 16.5388 7.49291 15.273 6.22704C14.0071 4.96117 12.2902 4.25001 10.5 4.25001ZM2.25 11C2.25017 9.67511 2.56944 8.36973 3.18079 7.19431C3.79214 6.01889 4.67759 5.00799 5.76224 4.24713C6.84689 3.48627 8.09883 2.99784 9.41216 2.82314C10.7255 2.64843 12.0616 2.79261 13.3074 3.24347C14.5533 3.69432 15.6722 4.4386 16.5695 5.41333C17.4669 6.38807 18.1163 7.56459 18.4628 8.84337C18.8094 10.1222 18.8428 11.4656 18.5603 12.76C18.2778 14.0545 17.6878 15.2618 16.84 16.28L21.53 20.97C21.6037 21.0387 21.6628 21.1215 21.7038 21.2135C21.7448 21.3055 21.7668 21.4048 21.7686 21.5055C21.7704 21.6062 21.7518 21.7062 21.7141 21.7996C21.6764 21.893 21.6203 21.9778 21.549 22.049C21.4778 22.1203 21.393 22.1764 21.2996 22.2141C21.2062 22.2519 21.1062 22.2704 21.0055 22.2686C20.9048 22.2668 20.8055 22.2448 20.7135 22.2038C20.6215 22.1628 20.5387 22.1037 20.47 22.03L15.78 17.34C14.5752 18.3435 13.1094 18.9829 11.5543 19.1833C9.99922 19.3837 8.41922 19.1367 6.99941 18.4714C5.5796 17.8061 4.37878 16.75 3.53763 15.4267C2.69648 14.1035 2.24983 12.568 2.25 11Z" fill="#858D9D"/>
</svg>
