<svg width="18" height="17" viewBox="0 0 18 17" fill="none" xmlns="http://www.w3.org/2000/svg">
<path d="M8.99991 6.83331V11.8333M8.99991 11.8333L11.4999 10.1666M8.99991 11.8333L6.49994 10.1666M1.5 3.50002V12.4999C1.5 13.4333 1.5 13.8997 1.68165 14.2562C1.84144 14.5698 2.09622 14.8253 2.40982 14.9851C2.76599 15.1665 3.23247 15.1665 4.16406 15.1665H13.8358C14.7673 15.1665 15.2332 15.1665 15.5893 14.9851C15.9029 14.8253 16.1586 14.57 16.3183 14.2564C16.5 13.8999 16.5 13.4332 16.5 12.4998L16.5 6.16647C16.5 5.23306 16.5 4.76636 16.3183 4.40984C16.1586 4.09624 15.9031 3.84146 15.5895 3.68167C15.233 3.50002 14.7666 3.50002 13.8332 3.50002H8.99991M1.5 3.50002H8.99991M1.5 3.50002C1.5 2.57956 2.24618 1.83337 3.16665 1.83337H6.22871C6.63635 1.83337 6.84066 1.83337 7.03247 1.87942C7.20253 1.92025 7.36481 1.98776 7.51393 2.07914C7.68206 2.18218 7.82644 2.32655 8.1145 2.61461L8.99991 3.50002" stroke="white" stroke-width="2" stroke-linecap="round" stroke-linejoin="round"/>
</svg>
