<svg width="24" height="23" viewBox="0 0 24 23" fill="none" xmlns="http://www.w3.org/2000/svg">
<path d="M2.1112 1.23334L1 2.26975L2.95751 5.42715L4.22698 5.25349L11.9758 12.4816L11.3148 13.0736C10.9763 13.3893 10.9763 13.8677 11.3148 14.1834L11.6584 14.5047C11.9969 14.8204 12.5149 14.8204 12.7688 14.5047L13.7742 15.4416C13.6896 15.9152 13.7742 16.478 14.1974 16.8727L18.7725 21.1155C19.7034 21.9837 21.2268 21.9837 22.1577 21.1155C23.2579 20.1682 23.2478 18.7521 22.3168 17.8839L17.7679 13.6159C17.3448 13.2212 16.7414 13.0633 16.2336 13.2212L15.1224 12.2842C15.3763 11.9685 15.3763 11.4854 15.1224 11.2478L14.805 10.9526C14.7281 10.8778 14.6357 10.8182 14.5335 10.7775C14.4312 10.7369 14.3212 10.7159 14.21 10.7159C14.0989 10.7159 13.9889 10.7369 13.8866 10.7775C13.7844 10.8182 13.692 10.8778 13.6151 10.9526L13.0599 11.4704L5.3111 4.24312L5.4956 3.0591L2.1112 1.23334ZM18.6142 1.25781C16.9445 1.12835 14.7305 2.16082 13.6946 3.05831C12.4201 4.24707 12.6283 5.8013 13.6413 7.30185L11.8438 8.97922L13.1132 10.3109C13.7903 9.75831 14.7889 9.75831 15.466 10.3109L15.8104 10.6313L15.89 10.7055L16.6305 10.0148C18.1606 10.8539 19.7534 10.9747 20.9678 9.84198C22.1527 8.81582 23.4374 6.28517 22.8449 4.78541L20.4651 7.07926C20.1266 7.395 19.6137 7.395 19.2752 7.07926L16.815 4.78541C16.7348 4.71365 16.6709 4.6275 16.6273 4.53214C16.5837 4.43677 16.5612 4.33417 16.5612 4.2305C16.5612 4.12682 16.5837 4.02422 16.6273 3.92885C16.6709 3.83349 16.7348 3.74734 16.815 3.67558L19.2761 1.38174C19.0645 1.31227 18.8529 1.27675 18.6142 1.25781ZM9.30484 11.1002L6.23612 13.9616C5.90636 13.8933 5.56933 13.8602 5.23155 13.8629C2.86188 13.8629 1 15.5995 1 17.8097C1 20.0198 2.86188 21.7564 5.23155 21.7564C7.60122 21.7564 9.4631 20.0198 9.4631 17.8097C9.4631 17.4047 9.39455 17.0156 9.27776 16.6501L11.0762 14.9727L10.8121 14.6523C10.1351 14.0208 10.1401 13.0641 10.7326 12.4318L9.30484 11.1002ZM15.8637 14.702C15.9695 14.702 16.0694 14.7209 16.154 14.8007L21.1532 19.4626C21.3224 19.6204 21.3224 19.8714 21.1532 20.0293C20.9839 20.1872 20.7131 20.1872 20.5438 20.0293L15.5464 15.3674C15.3771 15.2096 15.3771 14.9585 15.5464 14.8007C15.631 14.7217 15.7579 14.702 15.8637 14.702ZM5.81381 15.7613L7.42688 17.2666L6.84462 19.3134L4.65013 19.8564L3.03622 18.3512L3.61848 16.3044L5.81381 15.7613Z" fill="#767676"/>
</svg>
