<svg width="24" height="25" viewBox="0 0 24 25" fill="none" xmlns="http://www.w3.org/2000/svg">
<rect width="24" height="24" transform="translate(0 0.5)" fill="white"/>
<path d="M3 21.5H5M21 21.5H19M5 21.5H19M5 21.5V9.82837M19 21.5V9.82837M5 9.82837C4.96299 9.807 4.92651 9.78434 4.8906 9.7604L4.35024 9.40016C3.56331 8.87554 3.25144 7.87141 3.60269 6.99328L4.49711 4.75722C4.80084 3.9979 5.53626 3.5 6.35407 3.5H17.6459C18.4637 3.5 19.1992 3.9979 19.5029 4.75722L20.3973 6.99328C20.7486 7.87141 20.4367 8.87554 19.6498 9.40016L19.1094 9.7604C19.0735 9.78434 19.037 9.807 19 9.82837M5 9.82837C5.65537 10.207 6.47351 10.1843 7.1094 9.7604L9 8.5L10.8906 9.7604C11.5624 10.2083 12.4376 10.2083 13.1094 9.7604L15 8.5L16.8906 9.7604C17.5265 10.1843 18.3446 10.207 19 9.82837" stroke="#5D6679" stroke-width="2" stroke-linecap="round" stroke-linejoin="round"/>
<path d="M14 21.5V16.5C14 15.3954 13.1046 14.5 12 14.5V14.5C10.8954 14.5 10 15.3954 10 16.5V21.5" stroke="#5D6679" stroke-width="2"/>
</svg>
