<svg width="25" height="25" viewBox="0 0 25 25" fill="none" xmlns="http://www.w3.org/2000/svg">
<path fill-rule="evenodd" clip-rule="evenodd" d="M11 4.25001C10.1136 4.25001 9.23583 4.4246 8.41689 4.76382C7.59794 5.10304 6.85382 5.60024 6.22703 6.22704C5.60023 6.85384 5.10303 7.59795 4.76381 8.4169C4.42459 9.23585 4.25 10.1136 4.25 11C4.25 11.8864 4.42459 12.7642 4.76381 13.5831C5.10303 14.4021 5.60023 15.1462 6.22703 15.773C6.85382 16.3998 7.59794 16.897 8.41689 17.2362C9.23583 17.5754 10.1136 17.75 11 17.75C12.7902 17.75 14.5071 17.0389 15.773 15.773C17.0388 14.5071 17.75 12.7902 17.75 11C17.75 9.2098 17.0388 7.49291 15.773 6.22704C14.5071 4.96117 12.7902 4.25001 11 4.25001ZM2.75 11C2.75017 9.67511 3.06944 8.36973 3.68079 7.19431C4.29214 6.01889 5.17759 5.00799 6.26224 4.24713C7.34689 3.48627 8.59883 2.99784 9.91216 2.82314C11.2255 2.64843 12.5616 2.79261 13.8074 3.24347C15.0533 3.69432 16.1722 4.4386 17.0695 5.41333C17.9669 6.38807 18.6163 7.56459 18.9628 8.84337C19.3094 10.1222 19.3428 11.4656 19.0603 12.76C18.7778 14.0545 18.1878 15.2618 17.34 16.28L22.03 20.97C22.1037 21.0387 22.1628 21.1215 22.2038 21.2135C22.2448 21.3055 22.2668 21.4048 22.2686 21.5055C22.2704 21.6062 22.2518 21.7062 22.2141 21.7996C22.1764 21.893 22.1203 21.9778 22.049 22.049C21.9778 22.1203 21.893 22.1764 21.7996 22.2141C21.7062 22.2519 21.6062 22.2704 21.5055 22.2686C21.4048 22.2668 21.3055 22.2448 21.2135 22.2038C21.1215 22.1628 21.0387 22.1037 20.97 22.03L16.28 17.34C15.0752 18.3435 13.6094 18.9829 12.0543 19.1833C10.4992 19.3837 8.91922 19.1367 7.49941 18.4714C6.0796 17.8061 4.87878 16.75 4.03763 15.4267C3.19648 14.1035 2.74983 12.568 2.75 11Z" fill="#858D9D"/>
</svg>
